<?xml version="1.0" encoding="UTF-8"?>
<svg width="39" height="26" viewBox="0 0 39 26" fill="none" xmlns="http://www.w3.org/2000/svg">
  <g clip-path="url(#clip0)">
    <!-- Heart shape representing Samantha's emotional intelligence -->
    <path d="M19.5 7C17.5 2 12 2 9.5 5C7 8 7 12 9.5 15C12 18 19.5 23 19.5 23C19.5 23 27 18 29.5 15C32 12 32 8 29.5 5C27 2 21.5 2 19.5 7Z" fill="#FF3B30"/>
    
    <!-- Infinity symbol -->
    <path d="M13 18C10.5 18 8.5 16 8.5 13.5C8.5 11 10.5 9 13 9C15.5 9 19.5 13 19.5 13C19.5 13 23.5 9 26 9C28.5 9 30.5 11 30.5 13.5C30.5 16 28.5 18 26 18C23.5 18 19.5 14 19.5 14C19.5 14 15.5 18 13 18Z" fill="#FFFFFF"/>
    
    <!-- Subtle glow effect -->
    <path d="M19.5 7C17.5 2 12 2 9.5 5C7 8 7 12 9.5 15C12 18 19.5 23 19.5 23C19.5 23 27 18 29.5 15C32 12 32 8 29.5 5C27 2 21.5 2 19.5 7Z" fill="url(#glow)" fill-opacity="0.3"/>
  </g>
  
  <defs>
    <!-- Glow gradient -->
    <radialGradient id="glow" cx="19.5" cy="13" r="15" gradientUnits="userSpaceOnUse">
      <stop offset="0%" stop-color="#FFFFFF"/>
      <stop offset="100%" stop-color="#FF3B30" stop-opacity="0"/>
    </radialGradient>
    
    <clipPath id="clip0">
      <rect width="39" height="26" fill="white"/>
    </clipPath>
  </defs>
</svg>